<svg xmlns="http://www.w3.org/2000/svg" xmlns:xlink="http://www.w3.org/1999/xlink" viewBox="0 0 227 276.65">
  <defs>
    <linearGradient id="linear-gradient" x1="113.5" y1="276.65" x2="113.5" gradientUnits="userSpaceOnUse">
      <stop offset="0.07" stop-color="#0f94c9" stop-opacity="0.1"/>
      <stop offset="0.15" stop-color="#0f94c9" stop-opacity="0.23"/>
      <stop offset="0.31" stop-color="#0f94c9" stop-opacity="0.56"/>
      <stop offset="0.5" stop-color="#0f94c9"/>
      <stop offset="0.89" stop-color="#0f94c9"/>
      <stop offset="0.95" stop-color="#0f94c9"/>
    </linearGradient>
  </defs>
  <title>tower_icon</title>
  <g id="Layer_2" data-name="Layer 2">
    <g id="Layer_1-2" data-name="Layer 1">
      <polyline points="4 276.65 4 4 223 4 223 276.65" style="fill: none;stroke-miterlimit: 10;stroke-width: 8px;stroke: url(#linear-gradient)"/>
      <polygon points="74 88.15 48 133.15 48 147.15 74 193.15 88 202.15 139 202.15 154 193.15 179 151.15 179 128.15 153 88.15 139 79.15 89 79.15 74 88.15" style="fill: none;stroke: #0f94c9;stroke-miterlimit: 10;stroke-width: 6px"/>
      <line x1="113" y1="94.15" x2="74" y2="88.15" style="fill: none;stroke: #0f94c9;stroke-miterlimit: 10;stroke-width: 6px"/>
      <line x1="153" y1="88.15" x2="113" y2="94.15" style="fill: none;stroke: #0f94c9;stroke-miterlimit: 10;stroke-width: 6px"/>
      <line x1="113" y1="141.15" x2="113" y2="94.15" style="fill: none;stroke: #0f94c9;stroke-miterlimit: 10;stroke-width: 6px"/>
      <line x1="154" y1="163.15" x2="113" y2="141.15" style="fill: none;stroke: #0f94c9;stroke-miterlimit: 10;stroke-width: 6px"/>
      <line x1="73" y1="163.15" x2="113" y2="141.15" style="fill: none;stroke: #0f94c9;stroke-miterlimit: 10;stroke-width: 6px"/>
      <line x1="48" y1="133.15" x2="73" y2="163.15" style="fill: none;stroke: #0f94c9;stroke-miterlimit: 10;stroke-width: 6px"/>
      <line x1="88" y1="202.15" x2="73" y2="163.15" style="fill: none;stroke: #0f94c9;stroke-miterlimit: 10;stroke-width: 6px"/>
      <line x1="139" y1="202.15" x2="154" y2="163.15" style="fill: none;stroke: #0f94c9;stroke-miterlimit: 10;stroke-width: 6px"/>
      <line x1="179" y1="134.15" x2="154" y2="163.15" style="fill: none;stroke: #0f94c9;stroke-miterlimit: 10;stroke-width: 6px"/>
    </g>
  </g>
</svg>
